# xmcd
#
# Track frame offsets: 
#        150
#        21503
#        41705
#        62695
#        76903
#        119391
#        141325
#        161917
#        180808
#        193737
#        213305
#        246743
#        260312
#        281368
#        303469
#        319128
#
# Disc length: 4485 seconds
#
# Revision: 0
# Processed by: cddbd v1.5.2PL0 Copyright (c) Steve Scherf et al.
# Submitted via: ExactAudioCopy v0.99pb4
#
DISCID=ec118310
DTITLE=Various Artist - The Ashford and Simpson Songbook
DYEAR=2007
DGENRE=Soul
TTITLE0=Collins and Collins - Top Of The Stairs
TTITLE1=Chaka Khan - Clouds
TTITLE2=Gladys Knight and The Pips - Bourgie Bourgie
TTITLE3=The Main Ingredient - Have You Ever Tried It
TTITLE4=Sylvester - Over and Over
TTITLE5=Stephanie Mills - Keep Away Girls
TTITLE6=Teddy Pendergrass - Is It Still Good To Ya
TTITLE7=Dynamic Superiors - Hit And Run Lovers
TTITLE8=Tata Vega - Keep It Coming
TTITLE9=Ullanda Mccullough - Warm And Gentle Explosion
TTITLE10=Diana Ross - The Boss (Extended Club Mix)
TTITLE11=Marlena Shaw - California Soul
TTITLE12=Angela Bofill - Rough Times
TTITLE13=Jennifer Holiday - It's In There
TTITLE14=Blinky - I Wouldn't Change The Man He Is
TTITLE15=Marvin Gaye and Tammi Terrell - Ain't No Mountain High Enough (
TTITLE15=Arthur's A Major Reconstruction)
EXTD=
EXTT0=
EXTT1=
EXTT2=
EXTT3=
EXTT4=
EXTT5=
EXTT6=
EXTT7=
EXTT8=
EXTT9=
EXTT10=
EXTT11=
EXTT12=
EXTT13=
EXTT14=
EXTT15=
PLAYORDER=
